<svg width="274" height="233" viewBox="0 0 274 233" fill="none" xmlns="http://www.w3.org/2000/svg">
<path opacity="0.05" d="M137 0.963379L137.027 137.829L189.428 11.3918L137.076 137.85L233.873 41.0898L137.114 137.887L263.571 85.5355L137.135 137.937L274 137.963L137.135 137.99L263.571 190.391L137.114 138.04L233.873 234.837L137.076 138.077L189.428 264.535L137.027 138.098L137 274.963L136.973 138.098L84.5721 264.535L136.924 138.077L40.1264 234.837L136.886 138.04L10.4285 190.391L136.865 137.99L0 137.963L136.865 137.937L10.4285 85.5355L136.886 137.887L40.1264 41.0898L136.924 137.85L84.5721 11.3918L136.973 137.829L137 0.963379Z" fill="#F0C3D2" stroke="#B9B6B6" stroke-width="4"/>
</svg>
