<svg width="280" height="593" viewBox="0 0 280 593" fill="none" xmlns="http://www.w3.org/2000/svg">
<path opacity="0.25" d="M178.874 2C81.1888 2 2 31.4813 2 67.8483C2 104.215 81.1888 133.697 178.874 133.697C233.62 133.697 278 121.217 278 105.822C278 90.4277 233.62 77.9478 178.874 77.9478C81.1888 77.9478 2 107.429 2 143.796C2 180.163 81.1888 209.646 178.874 209.646C233.62 209.646 278 197.165 278 181.77C278 166.376 233.62 153.896 178.874 153.896C81.1888 153.896 2 183.558 2 220.148C2 256.738 81.1888 286.401 178.874 286.401C233.62 286.401 278 273.921 278 258.526C278 243.131 233.62 230.653 178.874 230.653C81.1888 230.653 2 260.133 2 296.5C2 332.867 81.1888 362.347 178.874 362.347C233.62 362.347 278 349.869 278 334.474C278 319.079 233.62 306.599 178.874 306.599C81.1888 306.599 2 336.081 2 372.449C2 408.816 81.1888 438.296 178.874 438.296C233.62 438.296 278 425.816 278 410.423C278 395.028 233.62 382.547 178.874 382.547C81.1888 382.547 2 412.03 2 448.395C2 484.762 81.1888 514.244 178.874 514.244C233.62 514.244 278 501.764 278 486.369C278 470.976 233.62 458.496 178.874 458.496C81.1888 458.496 2 488.157 2 524.747C2 561.337 81.1888 591 178.874 591" stroke="#4F4F4F" stroke-width="3" stroke-linecap="round"/>
</svg>
