<svg width="66" height="48" viewBox="0 0 66 48" fill="none" xmlns="http://www.w3.org/2000/svg">
<path d="M38.8116 47.5068H62.1618C64.0011 47.5068 65.4976 46.2219 65.4976 44.6426V26.0252C65.4976 24.4458 64.0011 23.1609 62.1618 23.1609H48.341C49.9041 16.5742 56.7568 11.7041 64.6636 11.7041C65.1241 11.7041 65.4976 11.3836 65.4976 10.988V1.67928C65.4976 1.28374 65.1241 0.96323 64.6636 0.96323C48.5695 0.96323 35.4759 12.206 35.4759 26.0252V44.6426C35.4759 46.2219 36.9723 47.5068 38.8116 47.5068ZM37.1438 26.0252C37.1438 13.235 49.0392 2.78574 63.8297 2.40594V10.2881C59.69 10.4498 55.7325 11.8109 52.6061 14.1623C49.305 16.6448 47.1455 20.0589 46.5249 23.7753C46.4905 23.981 46.5617 24.1892 46.7202 24.346C46.8786 24.503 47.1086 24.5931 47.3503 24.5931H62.1618C63.0815 24.5931 63.8297 25.2355 63.8297 26.0252V44.6426C63.8297 45.4323 63.0815 46.0747 62.1618 46.0747H38.8116C37.892 46.0747 37.1438 45.4323 37.1438 44.6426V26.0252ZM3.78637 47.5068H27.1365C28.9759 47.5068 30.4723 46.2219 30.4723 44.6426V26.0252C30.4723 24.4458 28.9759 23.1609 27.1365 23.1609H13.3151C14.8782 16.5742 21.731 11.7041 29.6384 11.7041C30.099 11.7041 30.4723 11.3836 30.4723 10.988V1.67928C30.4723 1.28374 30.099 0.96323 29.6384 0.96323C13.5442 0.96323 0.45063 12.206 0.45063 26.0252V44.6426C0.45063 46.2219 1.94688 47.5068 3.78637 47.5068ZM2.1185 26.0252C2.1185 13.235 14.0139 2.78574 28.8044 2.40594V10.2881C24.6648 10.4497 20.7071 11.8109 17.5805 14.1623C14.2793 16.6448 12.1195 20.0589 11.4989 23.7753C11.4646 23.981 11.536 24.1892 11.6942 24.346C11.8527 24.503 12.0825 24.5931 12.3244 24.5931H27.1365C28.0562 24.5931 28.8044 25.2355 28.8044 26.0252V44.6426C28.8044 45.4323 28.0562 46.0747 27.1365 46.0747H3.78637C2.86671 46.0747 2.1185 45.4323 2.1185 44.6426V26.0252Z" fill="#B9B6B6"/>
</svg>
