<svg width="70" height="71" viewBox="0 0 70 71" fill="none" xmlns="http://www.w3.org/2000/svg">
<path d="M34.8635 22.4586C36.9307 22.4586 38.9117 21.4168 40.4416 19.526C41.8389 17.7992 42.64 15.6213 42.64 13.5486C42.64 9.37324 39.2973 6.22461 34.8635 6.22461C30.4297 6.22461 27.0869 9.36914 27.0869 13.5486C27.0869 15.6213 27.8881 17.7992 29.2854 19.526C30.8152 21.4182 32.7963 22.4586 34.8635 22.4586ZM34.8635 8.48047C38.0627 8.48047 40.3842 10.6119 40.3842 13.5486C40.3842 17.24 37.3641 20.2027 34.8635 20.2027C31.8051 20.2027 29.3428 16.5619 29.3428 13.5486C29.3428 10.6174 31.6643 8.48047 34.8635 8.48047Z" fill="white"/>
<path d="M25.6606 33.2836L24.869 44.5752C24.8586 44.7229 24.8774 44.8713 24.9243 45.0118C24.9712 45.1523 25.0454 45.2822 25.1425 45.394C25.2396 45.5059 25.3578 45.5975 25.4903 45.6637C25.6229 45.7298 25.7671 45.7692 25.9149 45.7796H25.9942C26.2795 45.7793 26.5542 45.671 26.7629 45.4765C26.9717 45.282 27.099 45.0156 27.1194 44.731L27.911 33.449C27.9214 33.3012 27.9026 33.1529 27.8557 33.0124C27.8088 32.8719 27.7346 32.742 27.6375 32.6301C27.5404 32.5183 27.4222 32.4267 27.2897 32.3605C27.1571 32.2943 27.0129 32.2549 26.8651 32.2445C26.7173 32.2341 26.569 32.2529 26.4285 32.2998C26.288 32.3467 26.1581 32.4209 26.0462 32.518C25.9344 32.6151 25.8428 32.7333 25.7766 32.8658C25.7104 32.9984 25.671 33.1426 25.6606 33.2904V33.2836Z" fill="white"/>
<path d="M50.1608 45.7784C50.4668 45.7513 50.7496 45.604 50.9472 45.3687C51.1448 45.1335 51.241 44.8295 51.2149 44.5233C51.2149 44.5233 50.0227 35.9743 49.8477 33.106C49.5236 27.9558 46.3777 23.8241 41.4627 23.0722C39.7346 22.8069 36.5955 22.6073 34.9549 22.606C32.7153 22.6448 30.4793 22.7995 28.2557 23.0694C25.9504 23.385 23.8391 24.5296 22.3166 26.2892C20.717 28.1362 20.002 30.4974 19.8557 33.1114C19.6916 35.9825 18.6047 44.5356 18.6047 44.5356C18.5864 44.6839 18.5977 44.8344 18.638 44.9782C18.6783 45.1221 18.7468 45.2565 18.8395 45.3737C18.9322 45.4909 19.0473 45.5885 19.178 45.6608C19.3087 45.7331 19.4525 45.7788 19.6011 45.7951C19.7496 45.8114 19.8999 45.798 20.0432 45.7558C20.1865 45.7135 20.32 45.6432 20.4359 45.5489C20.5518 45.4546 20.6478 45.3383 20.7183 45.2066C20.7889 45.0749 20.8326 44.9305 20.8469 44.7817C20.8469 44.7817 21.9502 36.1356 22.1074 33.2358C22.3316 29.1261 24.7639 25.8229 28.5633 25.3062C30.6839 25.0486 32.8163 24.9007 34.9522 24.8632C36.4807 24.8632 39.5145 25.0573 41.1195 25.3034C42.8843 25.5705 44.4978 26.4529 45.675 27.7944C46.9273 29.2327 47.4701 31.1646 47.5891 33.2427C47.7627 36.1466 48.974 44.794 48.974 44.794C49.0179 45.0746 49.1627 45.3294 49.3812 45.5107C49.5997 45.6919 49.877 45.7872 50.1608 45.7784Z" fill="white"/>
<path d="M42.8284 32.2378C42.6799 32.248 42.5349 32.2875 42.4017 32.3541C42.2685 32.4206 42.1499 32.5128 42.0525 32.6254C41.9552 32.738 41.8811 32.8688 41.8345 33.0102C41.7879 33.1515 41.7698 33.3007 41.7811 33.4492L42.5741 44.7394C42.5938 45.0241 42.7207 45.2908 42.9293 45.4856C43.1378 45.6805 43.4125 45.789 43.6979 45.7894H43.7786C44.0769 45.768 44.3545 45.6292 44.5506 45.4034C44.7467 45.1776 44.8452 44.8832 44.8245 44.5849L44.0315 33.2933C44.0219 33.1449 43.9832 32.9999 43.9176 32.8666C43.8519 32.7332 43.7606 32.6141 43.6488 32.5161C43.5371 32.418 43.4071 32.343 43.2663 32.2952C43.1255 32.2475 42.9767 32.228 42.8284 32.2378Z" fill="white"/>
<path d="M42.0601 55.9916L47.4851 50.7033C47.6357 50.5564 47.7422 50.3703 47.7926 50.166C47.843 49.9618 47.8353 49.7475 47.7703 49.5474C47.7053 49.3473 47.5856 49.1693 47.4248 49.0337C47.264 48.898 47.0684 48.81 46.8602 48.7797L39.364 47.6859L36.0116 40.8978C35.9185 40.709 35.7744 40.5499 35.5956 40.4387C35.4168 40.3275 35.2105 40.2686 34.9999 40.2686C34.7893 40.2686 34.583 40.3275 34.4042 40.4387C34.2254 40.5499 34.0813 40.709 33.9882 40.8978L30.6358 47.69L23.1395 48.7838C22.9313 48.8141 22.7358 48.9021 22.575 49.0378C22.4141 49.1734 22.2945 49.3514 22.2295 49.5515C22.1645 49.7516 22.1568 49.9659 22.2072 50.1701C22.2576 50.3744 22.3641 50.5605 22.5147 50.7074L27.9397 55.9957L26.66 63.4564C26.6238 63.6644 26.6467 63.8784 26.7261 64.0741C26.8055 64.2697 26.9383 64.4392 27.1092 64.5631C27.2801 64.687 27.4824 64.7605 27.6931 64.7751C27.9037 64.7898 28.1142 64.745 28.3007 64.6459L34.9999 61.1213L41.6991 64.6459C41.8611 64.7307 42.0412 64.7753 42.2241 64.7758C42.3884 64.7755 42.5506 64.7395 42.6994 64.6701C42.8483 64.6007 42.9803 64.4997 43.0861 64.3741C43.1919 64.2485 43.2691 64.1013 43.3122 63.9428C43.3553 63.7843 43.3633 63.6183 43.3356 63.4564L42.0601 55.9916ZM34.4749 58.849C33.1651 59.5162 29.2686 61.5834 29.2686 61.5834L30.2626 55.7851C30.2935 55.605 30.2802 55.42 30.2237 55.2461C30.1673 55.0723 30.0694 54.9147 29.9386 54.7871L25.7263 50.6855L31.5477 49.8392C31.7286 49.8128 31.9003 49.7429 32.0482 49.6355C32.1961 49.5281 32.3157 49.3864 32.3968 49.2226L34.9944 43.9467L37.5921 49.2226C37.6731 49.3864 37.7927 49.5281 37.9406 49.6355C38.0885 49.7429 38.2603 49.8128 38.4411 49.8392L44.2626 50.6855L40.0503 54.7871C39.9194 54.9147 39.8216 55.0723 39.7651 55.2461C39.7087 55.42 39.6954 55.605 39.7263 55.7851L40.7202 61.5834C40.7202 61.5834 36.8237 59.5135 35.514 58.849C35.3543 58.7629 35.1758 58.7177 34.9944 58.7177C34.813 58.7177 34.6345 58.7629 34.4749 58.849Z" fill="white"/>
<path d="M65.9845 52.2082L60.5034 51.4112L58.052 46.4455C57.9592 46.2566 57.8152 46.0975 57.6365 45.9862C57.4578 45.8749 57.2515 45.8159 57.041 45.8159C56.8305 45.8159 56.6242 45.8749 56.4455 45.9862C56.2668 46.0975 56.1228 46.2566 56.03 46.4455L53.5786 51.4112L48.0975 52.2082C47.8894 52.2386 47.6938 52.3266 47.533 52.4622C47.3722 52.5979 47.2525 52.7758 47.1875 52.9759C47.1225 53.176 47.1148 53.3903 47.1652 53.5946C47.2156 53.7989 47.3221 53.985 47.4727 54.1319L51.4376 57.9983L50.5011 63.4561C50.4648 63.6641 50.4877 63.8781 50.5671 64.0737C50.6465 64.2694 50.7793 64.4388 50.9502 64.5628C51.1212 64.6867 51.3235 64.7602 51.5341 64.7748C51.7447 64.7894 51.9552 64.7446 52.1417 64.6455L57.0431 62.0684L61.9458 64.6455C62.1078 64.7304 62.2879 64.7749 62.4708 64.7754C62.635 64.7752 62.7973 64.7391 62.9461 64.6697C63.095 64.6004 63.2269 64.4993 63.3328 64.3737C63.4386 64.2481 63.5157 64.1009 63.5588 63.9425C63.6019 63.784 63.61 63.618 63.5823 63.4561L62.6458 57.9983L66.6106 54.1319C66.7613 53.985 66.8678 53.7989 66.9182 53.5946C66.9686 53.3903 66.9609 53.176 66.8959 52.9759C66.8309 52.7758 66.7112 52.5979 66.5504 52.4622C66.3896 52.3266 66.194 52.2386 65.9858 52.2082H65.9845ZM56.5167 59.7961C55.6567 60.2282 53.111 61.5858 53.111 61.5858L53.7618 57.7946C53.7927 57.6144 53.7794 57.4294 53.7229 57.2556C53.6665 57.0817 53.5686 56.9242 53.4378 56.7965L50.6829 54.1114L54.4891 53.5645C54.6702 53.5383 54.8422 53.4683 54.9902 53.3606C55.1381 53.2529 55.2576 53.1108 55.3382 52.9465L57.0403 49.4985L58.7425 52.9465C58.8236 53.1107 58.9434 53.2527 59.0915 53.3603C59.2396 53.468 59.4117 53.538 59.5929 53.5645L63.3977 54.1114L60.6442 56.7965C60.5132 56.924 60.4152 57.0816 60.3588 57.2555C60.3023 57.4294 60.2891 57.6144 60.3202 57.7946L60.9765 61.5858C60.9765 61.5858 58.4321 60.2282 57.5722 59.7961C57.41 59.7088 57.2286 59.663 57.0444 59.663C56.8602 59.663 56.6789 59.7088 56.5167 59.7961Z" fill="white"/>
<path d="M21.9024 52.2082L16.4214 51.4112L13.97 46.4455C13.8771 46.2566 13.7332 46.0975 13.5545 45.9862C13.3758 45.8749 13.1695 45.8159 12.959 45.8159C12.7485 45.8159 12.5421 45.8749 12.3634 45.9862C12.1847 46.0975 12.0408 46.2566 11.9479 46.4455L9.49657 51.4112L4.01552 52.2082C3.80732 52.2386 3.61176 52.3266 3.45095 52.4622C3.29013 52.5979 3.17046 52.7758 3.10546 52.9759C3.04047 53.176 3.03274 53.3903 3.08314 53.5946C3.13355 53.7989 3.24009 53.985 3.39071 54.1319L7.35556 57.9983L6.42587 63.4561C6.38965 63.6641 6.41254 63.8781 6.49195 64.0737C6.57135 64.2694 6.70408 64.4388 6.87502 64.5628C7.04597 64.6867 7.24827 64.7602 7.4589 64.7748C7.66954 64.7894 7.88005 64.7446 8.0665 64.6455L12.9692 62.0684L17.8706 64.6455C18.0326 64.7304 18.2127 64.7749 18.3956 64.7754C18.5598 64.7752 18.7221 64.7391 18.8709 64.6697C19.0198 64.6004 19.1518 64.4993 19.2576 64.3737C19.3634 64.2481 19.4406 64.1009 19.4837 63.9425C19.5268 63.784 19.5348 63.618 19.5071 63.4561L18.5706 57.9983L22.5354 54.1319C22.6861 53.985 22.7926 53.7989 22.843 53.5946C22.8934 53.3903 22.8857 53.176 22.8207 52.9759C22.7557 52.7758 22.636 52.5979 22.4752 52.4622C22.3144 52.3266 22.1188 52.2386 21.9106 52.2082H21.9024ZM12.4415 59.7961L9.03036 61.5858L9.67978 57.7946C9.71092 57.6144 9.69769 57.4294 9.64123 57.2555C9.58477 57.0816 9.48679 56.924 9.35575 56.7965L6.60224 54.1114L10.4071 53.5645C10.5883 53.538 10.7604 53.468 10.9085 53.3603C11.0566 53.2527 11.1764 53.1107 11.2575 52.9465L12.9597 49.4985L14.6618 52.9465C14.7424 53.1108 14.8619 53.2529 15.0098 53.3606C15.1578 53.4683 15.3297 53.5383 15.5108 53.5645L19.3171 54.1114L16.5622 56.7965C16.4314 56.9242 16.3335 57.0817 16.2771 57.2556C16.2206 57.4294 16.2073 57.6144 16.2382 57.7946L16.889 61.5858L13.4833 59.7961C13.3265 59.7002 13.1462 59.6494 12.9624 59.6494C12.7786 59.6494 12.5983 59.7002 12.4415 59.7961Z" fill="white"/>
</svg>
