<svg width="68" height="69" viewBox="0 0 68 69" fill="none" xmlns="http://www.w3.org/2000/svg">
<path fill-rule="evenodd" clip-rule="evenodd" d="M34.0002 10.3948C38.7677 10.3948 43.4282 11.8086 47.3923 14.4573C51.3563 17.106 54.4459 20.8708 56.2704 25.2754C58.0948 29.68 58.5721 34.5268 57.642 39.2027C56.7119 43.8787 54.4161 48.1738 51.0449 51.5449C47.6737 54.9161 43.3786 57.2119 38.7027 58.1419C34.0267 59.072 29.18 58.5947 24.7754 56.7702C20.3707 54.9457 16.606 51.8561 13.9573 47.892C11.3086 43.928 9.89489 39.2675 9.89489 34.5C9.89497 28.1069 12.4347 21.9756 16.9553 17.4551C21.4759 12.9345 27.6071 10.3948 34.0002 10.3948ZM6.66122 33.6721C6.51407 33.1225 6.22305 32.622 5.81813 32.2222C5.41321 31.8224 4.90903 31.5378 4.35753 31.3977C3.80603 31.2575 3.22715 31.267 2.68051 31.425C2.13387 31.583 1.63923 31.8839 1.24756 32.2967C0.85589 32.7095 0.581338 33.2192 0.452186 33.7734C0.323035 34.3275 0.343954 34.9061 0.512788 35.4495C0.681622 35.9929 0.992267 36.4815 1.41272 36.8649C1.83318 37.2483 2.34825 37.5127 2.90488 37.6308C3.51249 43.6426 5.84844 49.3498 9.63036 54.0624C13.4123 58.775 18.4783 62.2912 24.2159 64.1861C24.3193 64.2245 24.4294 64.2416 24.5395 64.2364C24.6497 64.2313 24.7577 64.204 24.8571 64.1561C24.9564 64.1083 25.0451 64.0409 25.1179 63.958C25.1906 63.8751 25.2459 63.7783 25.2804 63.6736C25.3149 63.5688 25.3279 63.4582 25.3186 63.3483C25.3094 63.2384 25.2781 63.1315 25.2266 63.034C25.1751 62.9365 25.1045 62.8503 25.0189 62.7807C24.9334 62.7111 24.8347 62.6595 24.7287 62.6289C19.3052 60.8381 14.5147 57.5182 10.9337 53.0687C7.3526 48.6192 5.13358 43.2298 4.54359 37.5488C5.32634 37.2974 5.98259 36.7549 6.37671 36.0334C6.77083 35.3119 6.87269 34.4666 6.66122 33.6721ZM5.07829 34.095C5.15836 34.3934 5.14814 34.7089 5.04892 35.0015C4.94971 35.2941 4.76595 35.5507 4.52089 35.7389C4.27584 35.9271 3.98048 36.0384 3.67217 36.0587C3.36386 36.0791 3.05645 36.0075 2.7888 35.8531C2.52116 35.6988 2.30529 35.4685 2.16851 35.1914C2.03173 34.9144 1.98017 34.603 2.02036 34.2966C2.06054 33.9903 2.19066 33.7027 2.39427 33.4703C2.59788 33.2379 2.86582 33.0711 3.16423 32.991C3.36241 32.9373 3.56924 32.9232 3.77286 32.9497C3.97647 32.9762 4.17285 33.0426 4.35071 33.1452C4.52857 33.2478 4.68441 33.3845 4.80927 33.5475C4.93413 33.7105 5.02556 33.8966 5.07829 34.095ZM37.0918 3.24153C36.906 2.54678 36.4917 1.93485 35.9155 1.50442C35.3394 1.07399 34.6351 0.850161 33.9162 0.869021C33.1973 0.887881 32.5057 1.14833 31.9529 1.60838C31.4001 2.06842 31.0184 2.70124 30.8693 3.40478C24.8574 4.01233 19.1502 6.34825 14.4376 10.1302C9.72496 13.9121 6.20866 18.9781 4.31376 24.7158C4.2756 24.8192 4.25866 24.9292 4.26394 25.0392C4.26922 25.1493 4.29662 25.2572 4.3445 25.3564C4.39239 25.4556 4.45977 25.5442 4.54263 25.6168C4.6255 25.6894 4.72214 25.7446 4.8268 25.7791C4.93146 25.8135 5.04199 25.8266 5.15178 25.8174C5.26158 25.8082 5.36841 25.7769 5.46587 25.7255C5.56334 25.6742 5.64946 25.6037 5.71909 25.5183C5.78871 25.4329 5.84042 25.3343 5.87113 25.2285C7.66195 19.805 10.9818 15.0145 15.4313 11.4334C19.8808 7.85239 25.2704 5.63341 30.9514 5.04349C31.2062 5.83896 31.7618 6.50332 32.4997 6.89473C33.2376 7.28613 34.0993 7.37357 34.9008 7.13837C35.7023 6.90317 36.3801 6.36398 36.7895 5.6359C37.1989 4.90782 37.3074 4.04855 37.0919 3.24153H37.0918ZM35.5089 3.66441C35.5889 3.96283 35.5787 4.27829 35.4795 4.57091C35.3803 4.86352 35.1965 5.12015 34.9515 5.30833C34.7064 5.49652 34.4111 5.60781 34.1028 5.62814C33.7944 5.64847 33.487 5.57693 33.2194 5.42255C32.9517 5.26818 32.7359 5.0379 32.5991 4.76085C32.4623 4.4838 32.4108 4.17241 32.4509 3.86606C32.4911 3.5597 32.6213 3.27215 32.8249 3.03974C33.0285 2.80734 33.2964 2.64053 33.5948 2.5604C33.793 2.50669 33.9998 2.49266 34.2034 2.51912C34.4071 2.54558 34.6034 2.61201 34.7813 2.7146C34.9592 2.81719 35.115 2.95391 35.2399 3.11691C35.3647 3.2799 35.4561 3.46597 35.5089 3.66441ZM67.5224 33.6721C67.3685 33.1023 67.0605 32.5859 66.6323 32.1796C66.2041 31.7733 65.6722 31.4929 65.0951 31.3691C64.4875 25.3572 62.1516 19.65 58.3697 14.9374C54.5877 10.2248 49.5217 6.70855 43.7841 4.81366C43.58 4.75444 43.3609 4.77673 43.1729 4.87584C42.9849 4.97494 42.8427 5.14312 42.7763 5.34497C42.7098 5.54682 42.7243 5.76657 42.8167 5.95796C42.909 6.14935 43.072 6.29743 43.2714 6.37103C48.6949 8.16182 53.4854 11.4817 57.0664 15.9312C60.6475 20.3806 62.8665 25.7701 63.4564 31.4511C62.8596 31.6418 62.3318 32.0035 61.9386 32.4913C61.5454 32.9791 61.304 33.5716 61.2444 34.1953C61.1848 34.819 61.3095 35.4465 61.6031 36C61.8967 36.5535 62.3464 37.0086 62.8962 37.309C63.4461 37.6093 64.072 37.7417 64.6964 37.6896C65.3208 37.6376 65.9162 37.4035 66.4087 37.0162C66.9013 36.629 67.2694 36.1057 67.4673 35.5113C67.6653 34.9168 67.6845 34.2774 67.5224 33.6721ZM65.9396 34.095C66.0197 34.3934 66.0094 34.7089 65.9102 35.0015C65.811 35.2941 65.6273 35.5507 65.3822 35.7389C65.1371 35.9271 64.8418 36.0384 64.5335 36.0587C64.2252 36.0791 63.9178 36.0075 63.6501 35.8531C63.3825 35.6988 63.1666 35.4685 63.0298 35.1914C62.893 34.9144 62.8415 34.603 62.8817 34.2966C62.9218 33.9903 63.052 33.7027 63.2556 33.4703C63.4592 33.2379 63.7271 33.0711 64.0255 32.991C64.2237 32.9373 64.4305 32.9232 64.6342 32.9497C64.8378 32.9762 65.0342 33.0426 65.212 33.1452C65.3899 33.2478 65.5457 33.3845 65.6706 33.5475C65.7954 33.7105 65.8869 33.8966 65.9396 34.095ZM37.049 63.9563C36.8125 63.2156 36.3145 62.5862 35.648 62.1858C34.9815 61.7853 34.192 61.641 33.4269 61.7799C32.6619 61.9188 31.9735 62.3313 31.4903 62.9405C31.007 63.5497 30.762 64.3139 30.8009 65.0905C30.8398 65.8671 31.1599 66.603 31.7015 67.1608C32.2432 67.7187 32.9693 68.0604 33.7444 68.1222C34.5195 68.184 35.2906 67.9616 35.9138 67.4966C36.537 67.0315 36.9697 66.3556 37.131 65.595C43.1429 64.9874 48.85 62.6514 53.5625 58.8695C58.2751 55.0876 61.7913 50.0216 63.6862 44.284C63.7246 44.1805 63.7418 44.0704 63.7367 43.9602C63.7316 43.85 63.7043 43.7419 63.6565 43.6425C63.6086 43.5431 63.5412 43.4543 63.4583 43.3816C63.3754 43.3088 63.2786 43.2535 63.1738 43.219C63.069 43.1845 62.9583 43.1715 62.8484 43.1808C62.7384 43.19 62.6315 43.2214 62.534 43.2729C62.4364 43.3245 62.3503 43.3952 62.2807 43.4808C62.2111 43.5665 62.1595 43.6652 62.129 43.7713C60.3382 49.1948 57.0183 53.9853 52.5689 57.5663C48.1194 61.1473 42.73 63.3663 37.049 63.9563ZM35.509 64.5256C35.5891 64.824 35.5789 65.1395 35.4796 65.4321C35.3804 65.7247 35.1967 65.9813 34.9516 66.1695C34.7066 66.3577 34.4112 66.469 34.1029 66.4893C33.7946 66.5096 33.4872 66.4381 33.2195 66.2837C32.9519 66.1293 32.736 65.8991 32.5992 65.622C32.4625 65.345 32.4109 65.0336 32.4511 64.7272C32.4913 64.4209 32.6214 64.1333 32.825 63.9009C33.0286 63.6685 33.2965 63.5017 33.595 63.4216C33.7931 63.3679 34 63.3538 34.2036 63.3803C34.4072 63.4068 34.6036 63.4732 34.7814 63.5758C34.9593 63.6784 35.1151 63.8151 35.24 63.9781C35.3649 64.1411 35.4563 64.3271 35.509 64.5256ZM56.4494 35.3203H46.4553C46.385 39.4324 45.7882 43.2862 44.7948 46.6229C47.0011 47.1687 49.1382 47.9636 51.165 48.9921C54.4121 45.1578 56.2735 40.3417 56.4494 35.3203ZM44.8146 35.3203H23.1857C23.2559 39.3178 23.8364 43.0462 24.8 46.2513C30.8711 45.0117 37.1301 45.0117 43.2012 46.2513C44.1643 43.0462 44.7448 39.3178 44.8146 35.3203ZM21.544 35.3203H11.551C11.7269 40.3417 13.5884 45.1577 16.8354 48.9921C18.862 47.9634 20.9991 47.1684 23.2053 46.6224C22.2119 43.2856 21.6151 39.4317 21.5447 35.3197L21.544 35.3203ZM11.551 33.6796H21.5451C21.6155 29.5676 22.2123 25.7136 23.2057 22.377C20.9992 21.8312 18.8619 21.0363 16.835 20.0078C13.5882 23.8423 11.7269 28.6582 11.551 33.6796ZM23.1857 33.6796H44.8146C44.7445 29.6821 44.164 25.9535 43.2004 22.7484C37.1293 23.9881 30.8703 23.9881 24.7992 22.7484C23.8358 25.9535 23.2553 29.6821 23.1857 33.6796ZM46.4553 33.6796H56.4494C56.2734 28.6582 54.4119 23.8422 51.165 20.0078C49.1383 21.0365 47.0013 21.8316 44.7951 22.3776C45.7885 25.7143 46.3853 29.5682 46.4555 33.6803L46.4553 33.6796ZM39.3493 12.6762C41.583 14.7035 43.2029 17.74 44.2895 20.8193C46.2676 20.3343 48.189 19.6419 50.0219 18.7536C47.0991 15.7743 43.403 13.6696 39.3493 12.6762ZM44.2895 48.1804C43.2029 51.2599 41.5825 54.2963 39.3493 56.3235C43.403 55.3302 47.0991 53.2255 50.0219 50.2461C48.189 49.3579 46.2676 48.6655 44.2895 48.1804ZM28.6508 56.3235C26.4169 54.2963 24.7974 51.26 23.7106 48.1804C21.7325 48.6655 19.8111 49.3579 17.9783 50.2461C20.901 53.2255 24.5971 55.3302 28.6508 56.3235ZM23.7106 20.8193C24.7971 17.74 26.4176 14.7034 28.6508 12.6762C24.597 13.6695 20.9009 15.7743 17.9781 18.7538C19.811 19.6419 21.7325 20.3343 23.7106 20.8193ZM41.5019 18.4004C37.2612 9.91888 30.7389 9.91874 26.4982 18.4004C26.0491 19.3049 25.6537 20.2351 25.3142 21.1861C30.8387 22.3216 37.1614 22.3216 42.6859 21.1861C42.3464 20.2351 41.951 19.3049 41.5019 18.4004ZM25.3142 47.8136C26.9015 52.2246 29.9107 56.9643 34 56.9643C38.0894 56.9643 41.0986 52.2246 42.6859 47.8136C37.1614 46.6783 30.8387 46.6783 25.3142 47.8136Z" fill="white"/>
</svg>
