<svg width="70" height="71" viewBox="0 0 70 71" fill="none" xmlns="http://www.w3.org/2000/svg">
<path d="M34.8635 22.4584C36.9307 22.4584 38.9117 21.4166 40.4416 19.5257C41.8389 17.799 42.64 15.621 42.64 13.5484C42.64 9.373 39.2973 6.22437 34.8635 6.22437C30.4297 6.22437 27.0869 9.3689 27.0869 13.5484C27.0869 15.621 27.8881 17.799 29.2854 19.5257C30.8152 21.4179 32.7963 22.4584 34.8635 22.4584ZM34.8635 8.48022C38.0627 8.48022 40.3842 10.6117 40.3842 13.5484C40.3842 17.2398 37.3641 20.2025 34.8635 20.2025C31.8051 20.2025 29.3428 16.5617 29.3428 13.5484C29.3428 10.6171 31.6643 8.48022 34.8635 8.48022Z" fill="white"/>
<path d="M25.6606 33.2838L24.869 44.5754C24.8586 44.7232 24.8774 44.8715 24.9243 45.012C24.9712 45.1525 25.0454 45.2824 25.1425 45.3943C25.2396 45.5061 25.3578 45.5977 25.4903 45.6639C25.6229 45.7301 25.7671 45.7695 25.9149 45.7799H25.9942C26.2795 45.7796 26.5542 45.6713 26.7629 45.4767C26.9717 45.2822 27.099 45.0159 27.1194 44.7313L27.911 33.4492C27.9214 33.3015 27.9026 33.1531 27.8557 33.0126C27.8088 32.8721 27.7346 32.7422 27.6375 32.6304C27.5404 32.5185 27.4222 32.4269 27.2897 32.3607C27.1571 32.2946 27.0129 32.2551 26.8651 32.2447C26.7173 32.2343 26.569 32.2531 26.4285 32.3C26.288 32.347 26.1581 32.4211 26.0462 32.5182C25.9344 32.6153 25.8428 32.7335 25.7766 32.8661C25.7104 32.9986 25.671 33.1429 25.6606 33.2906V33.2838Z" fill="white"/>
<path d="M50.1608 45.7784C50.4668 45.7513 50.7496 45.604 50.9472 45.3687C51.1448 45.1335 51.241 44.8295 51.2149 44.5233C51.2149 44.5233 50.0227 35.9743 49.8477 33.106C49.5236 27.9558 46.3777 23.8241 41.4627 23.0722C39.7346 22.8069 36.5955 22.6073 34.9549 22.606C32.7153 22.6448 30.4793 22.7995 28.2557 23.0694C25.9504 23.385 23.8391 24.5296 22.3166 26.2892C20.717 28.1362 20.002 30.4974 19.8557 33.1114C19.6916 35.9825 18.6047 44.5356 18.6047 44.5356C18.5864 44.6839 18.5977 44.8344 18.638 44.9782C18.6783 45.1221 18.7468 45.2565 18.8395 45.3737C18.9322 45.4909 19.0473 45.5885 19.178 45.6608C19.3087 45.7331 19.4525 45.7788 19.6011 45.7951C19.7496 45.8114 19.8999 45.798 20.0432 45.7558C20.1865 45.7135 20.32 45.6432 20.4359 45.5489C20.5518 45.4546 20.6478 45.3383 20.7183 45.2066C20.7889 45.0749 20.8326 44.9305 20.8469 44.7817C20.8469 44.7817 21.9502 36.1356 22.1074 33.2358C22.3316 29.1261 24.7639 25.8229 28.5633 25.3062C30.6839 25.0486 32.8163 24.9007 34.9522 24.8632C36.4807 24.8632 39.5145 25.0573 41.1195 25.3034C42.8843 25.5705 44.4978 26.4529 45.675 27.7944C46.9273 29.2327 47.4701 31.1646 47.5891 33.2427C47.7627 36.1466 48.974 44.794 48.974 44.794C49.0179 45.0746 49.1627 45.3294 49.3812 45.5107C49.5997 45.6919 49.877 45.7872 50.1608 45.7784Z" fill="white"/>
<path d="M42.8284 32.2378C42.6799 32.248 42.5349 32.2875 42.4017 32.3541C42.2685 32.4206 42.1499 32.5128 42.0525 32.6254C41.9552 32.738 41.8811 32.8688 41.8345 33.0102C41.7879 33.1515 41.7698 33.3007 41.7811 33.4492L42.5741 44.7394C42.5938 45.0241 42.7207 45.2908 42.9293 45.4856C43.1378 45.6805 43.4125 45.789 43.6979 45.7894H43.7786C44.0769 45.768 44.3545 45.6292 44.5506 45.4034C44.7467 45.1776 44.8452 44.8832 44.8245 44.5849L44.0315 33.2933C44.0219 33.1449 43.9832 32.9999 43.9176 32.8666C43.8519 32.7332 43.7606 32.6141 43.6488 32.5161C43.5371 32.418 43.4071 32.343 43.2663 32.2952C43.1255 32.2475 42.9767 32.228 42.8284 32.2378Z" fill="white"/>
<path d="M42.0601 55.9913L47.4851 50.7031C47.6357 50.5562 47.7422 50.3701 47.7926 50.1658C47.843 49.9615 47.8353 49.7472 47.7703 49.5471C47.7053 49.347 47.5856 49.1691 47.4248 49.0334C47.264 48.8978 47.0684 48.8098 46.8602 48.7794L39.364 47.6857L36.0116 40.8976C35.9185 40.7087 35.7744 40.5497 35.5956 40.4385C35.4168 40.3273 35.2105 40.2683 34.9999 40.2683C34.7893 40.2683 34.583 40.3273 34.4042 40.4385C34.2254 40.5497 34.0813 40.7087 33.9882 40.8976L30.6358 47.6898L23.1395 48.7835C22.9313 48.8139 22.7358 48.9019 22.575 49.0375C22.4141 49.1732 22.2945 49.3511 22.2295 49.5512C22.1645 49.7513 22.1568 49.9656 22.2072 50.1699C22.2576 50.3742 22.3641 50.5603 22.5147 50.7072L27.9397 55.9954L26.66 63.4562C26.6238 63.6642 26.6467 63.8782 26.7261 64.0738C26.8055 64.2695 26.9383 64.4389 27.1092 64.5629C27.2801 64.6868 27.4824 64.7603 27.6931 64.7749C27.9037 64.7895 28.1142 64.7447 28.3007 64.6456L34.9999 61.121L41.6991 64.6456C41.8611 64.7305 42.0412 64.775 42.2241 64.7755C42.3884 64.7753 42.5506 64.7392 42.6994 64.6698C42.8483 64.6005 42.9803 64.4994 43.0861 64.3738C43.1919 64.2482 43.2691 64.101 43.3122 63.9426C43.3553 63.7841 43.3633 63.6181 43.3356 63.4562L42.0601 55.9913ZM34.4749 58.8488C33.1651 59.516 29.2686 61.5831 29.2686 61.5831L30.2626 55.7849C30.2935 55.6047 30.2802 55.4198 30.2237 55.2459C30.1673 55.072 30.0694 54.9145 29.9386 54.7868L25.7263 50.6853L31.5477 49.839C31.7286 49.8126 31.9003 49.7427 32.0482 49.6353C32.1961 49.5279 32.3157 49.3862 32.3968 49.2224L34.9944 43.9464L37.5921 49.2224C37.6731 49.3862 37.7927 49.5279 37.9406 49.6353C38.0885 49.7427 38.2603 49.8126 38.4411 49.839L44.2626 50.6853L40.0503 54.7868C39.9194 54.9145 39.8216 55.072 39.7651 55.2459C39.7087 55.4198 39.6954 55.6047 39.7263 55.7849L40.7202 61.5831C40.7202 61.5831 36.8237 59.5132 35.514 58.8488C35.3543 58.7626 35.1758 58.7175 34.9944 58.7175C34.813 58.7175 34.6345 58.7626 34.4749 58.8488Z" fill="white"/>
<path d="M65.9845 52.2085L60.5034 51.4114L58.052 46.4458C57.9592 46.2569 57.8152 46.0977 57.6365 45.9864C57.4578 45.8751 57.2515 45.8162 57.041 45.8162C56.8305 45.8162 56.6242 45.8751 56.4455 45.9864C56.2668 46.0977 56.1228 46.2569 56.03 46.4458L53.5786 51.4114L48.0975 52.2085C47.8894 52.2388 47.6938 52.3268 47.533 52.4625C47.3722 52.5981 47.2525 52.7761 47.1875 52.9762C47.1225 53.1763 47.1148 53.3906 47.1652 53.5948C47.2156 53.7991 47.3221 53.9852 47.4727 54.1321L51.4376 57.9985L50.5011 63.4563C50.4648 63.6643 50.4877 63.8783 50.5671 64.074C50.6465 64.2696 50.7793 64.4391 50.9502 64.563C51.1212 64.6869 51.3235 64.7604 51.5341 64.775C51.7447 64.7897 51.9552 64.7449 52.1417 64.6458L57.0431 62.0686L61.9458 64.6458C62.1078 64.7306 62.2879 64.7752 62.4708 64.7757C62.635 64.7754 62.7973 64.7394 62.9461 64.67C63.095 64.6006 63.2269 64.4996 63.3328 64.374C63.4386 64.2484 63.5157 64.1012 63.5588 63.9427C63.6019 63.7842 63.61 63.6182 63.5823 63.4563L62.6458 57.9985L66.6106 54.1321C66.7613 53.9852 66.8678 53.7991 66.9182 53.5948C66.9686 53.3906 66.9609 53.1763 66.8959 52.9762C66.8309 52.7761 66.7112 52.5981 66.5504 52.4625C66.3896 52.3268 66.194 52.2388 65.9858 52.2085H65.9845ZM56.5167 59.7964C55.6567 60.2284 53.111 61.586 53.111 61.586L53.7618 57.7948C53.7927 57.6146 53.7794 57.4297 53.7229 57.2558C53.6665 57.0819 53.5686 56.9244 53.4378 56.7968L50.6829 54.1116L54.4891 53.5647C54.6702 53.5385 54.8422 53.4685 54.9902 53.3609C55.1381 53.2532 55.2576 53.111 55.3382 52.9468L57.0403 49.4987L58.7425 52.9468C58.8236 53.1109 58.9434 53.2529 59.0915 53.3606C59.2396 53.4682 59.4117 53.5383 59.5929 53.5647L63.3977 54.1116L60.6442 56.7968C60.5132 56.9243 60.4152 57.0818 60.3588 57.2557C60.3023 57.4296 60.2891 57.6146 60.3202 57.7948L60.9765 61.586C60.9765 61.586 58.4321 60.2284 57.5722 59.7964C57.41 59.709 57.2286 59.6633 57.0444 59.6633C56.8602 59.6633 56.6789 59.709 56.5167 59.7964Z" fill="white"/>
<path d="M21.9024 52.2085L16.4214 51.4114L13.97 46.4458C13.8771 46.2569 13.7332 46.0977 13.5545 45.9864C13.3758 45.8751 13.1695 45.8162 12.959 45.8162C12.7485 45.8162 12.5421 45.8751 12.3634 45.9864C12.1847 46.0977 12.0408 46.2569 11.9479 46.4458L9.49657 51.4114L4.01552 52.2085C3.80732 52.2388 3.61176 52.3268 3.45095 52.4625C3.29013 52.5981 3.17046 52.7761 3.10546 52.9762C3.04047 53.1763 3.03274 53.3906 3.08314 53.5948C3.13355 53.7991 3.24009 53.9852 3.39071 54.1321L7.35556 57.9985L6.42587 63.4563C6.38965 63.6643 6.41254 63.8783 6.49195 64.074C6.57135 64.2696 6.70408 64.4391 6.87502 64.563C7.04597 64.6869 7.24827 64.7604 7.4589 64.775C7.66954 64.7897 7.88005 64.7449 8.0665 64.6458L12.9692 62.0686L17.8706 64.6458C18.0326 64.7306 18.2127 64.7752 18.3956 64.7757C18.5598 64.7754 18.7221 64.7394 18.8709 64.67C19.0198 64.6006 19.1518 64.4996 19.2576 64.374C19.3634 64.2484 19.4406 64.1012 19.4837 63.9427C19.5268 63.7842 19.5348 63.6182 19.5071 63.4563L18.5706 57.9985L22.5354 54.1321C22.6861 53.9852 22.7926 53.7991 22.843 53.5948C22.8934 53.3906 22.8857 53.1763 22.8207 52.9762C22.7557 52.7761 22.636 52.5981 22.4752 52.4625C22.3144 52.3268 22.1188 52.2388 21.9106 52.2085H21.9024ZM12.4415 59.7964L9.03036 61.586L9.67978 57.7948C9.71092 57.6146 9.69769 57.4296 9.64123 57.2557C9.58477 57.0818 9.48679 56.9243 9.35575 56.7968L6.60224 54.1116L10.4071 53.5647C10.5883 53.5383 10.7604 53.4682 10.9085 53.3606C11.0566 53.2529 11.1764 53.1109 11.2575 52.9468L12.9597 49.4987L14.6618 52.9468C14.7424 53.111 14.8619 53.2532 15.0098 53.3609C15.1578 53.4685 15.3297 53.5385 15.5108 53.5647L19.3171 54.1116L16.5622 56.7968C16.4314 56.9244 16.3335 57.0819 16.2771 57.2558C16.2206 57.4297 16.2073 57.6146 16.2382 57.7948L16.889 61.586L13.4833 59.7964C13.3265 59.7004 13.1462 59.6497 12.9624 59.6497C12.7786 59.6497 12.5983 59.7004 12.4415 59.7964Z" fill="white"/>
</svg>
