<svg width="57" height="71" viewBox="0 0 57 71" fill="none" xmlns="http://www.w3.org/2000/svg">
<path d="M56.8689 28.8687C56.8689 27.0899 56.2079 25.3882 55.0075 24.0768C53.947 22.9185 53.5166 21.3001 53.8559 19.7474C54.2341 18.0172 53.9544 16.2193 53.0682 14.6843C52.1807 13.1472 50.7611 12.0052 49.0706 11.4685C47.5638 10.9901 46.3788 9.80507 45.9004 8.29832C45.3635 6.60782 44.2215 5.18801 42.6845 4.30072C41.1499 3.41466 39.3522 3.13494 37.6215 3.51296C36.069 3.85229 34.4504 3.42191 33.2921 2.36153C31.9809 1.16102 30.279 0.5 28.5002 0.5C26.7214 0.5 25.0196 1.16102 23.7083 2.36153C22.55 3.42191 20.9316 3.85257 19.3789 3.51296C17.6488 3.13521 15.8508 3.41452 14.3158 4.30072C12.7789 5.18801 11.6367 6.60781 11.1 8.29845C10.6216 9.80521 9.43655 10.9901 7.9298 11.4686C6.23916 12.0054 4.8195 13.1475 3.93207 14.6845C3.04601 16.2193 2.76629 18.0172 3.14431 19.7475C3.48364 21.3001 3.05326 22.9187 1.99288 24.0769C0.792373 25.3882 0.131348 27.09 0.131348 28.8688C0.131348 30.6477 0.792373 32.3494 1.99288 33.6608C3.05326 34.819 3.48364 36.4376 3.14431 37.9902C2.76615 39.7203 3.04587 41.5184 3.93207 43.0532C4.81936 44.5902 6.23916 45.7323 7.9298 46.269C8.41911 46.4243 8.87369 46.6554 9.28193 46.9466L4.62987 58.1777C3.90623 59.9248 4.17707 61.8516 5.35433 63.3314C6.5316 64.8112 8.34774 65.5085 10.2132 65.1961C13.1233 64.7091 16.1104 65.9462 17.8234 68.3484C18.803 69.7219 20.323 70.5 21.9737 70.5C22.1733 70.5 22.3751 70.4887 22.5776 70.4656C24.4567 70.2516 26.0104 69.0807 26.7342 67.3335L28.5003 63.0699L30.2664 67.3335C30.9901 69.0807 32.544 70.2516 34.4229 70.4656C34.6255 70.4887 34.8272 70.5 35.0268 70.5C36.6773 70.5 38.1975 69.7219 39.1771 68.3484C40.8901 65.9461 43.8778 64.709 46.7873 65.1961C48.6518 65.5082 50.4686 64.8114 51.646 63.3314C52.8233 61.8514 53.0943 59.9248 52.3705 58.1777C52.1538 57.6545 51.554 57.4061 51.0308 57.6228C50.5076 57.8395 50.259 58.4393 50.4759 58.9625C50.9101 60.0107 50.7474 61.1668 50.0411 62.0547C49.3348 62.9427 48.2456 63.3612 47.1258 63.1736C43.4488 62.5577 39.6724 64.1215 37.5072 67.1577C36.8484 68.0816 35.7821 68.5567 34.6548 68.4281C33.5274 68.2997 32.5951 67.5972 32.1608 66.5489L29.6101 60.3906L31.1242 56.7352C31.9156 56.4204 32.6508 55.9633 33.2921 55.3761C34.4504 54.3158 36.0692 53.8857 37.6215 54.2247C39.3523 54.603 41.15 54.323 42.6845 53.4369C44.2215 52.5497 45.3636 51.1299 45.9004 49.4392C45.9842 49.1751 46.091 48.9215 46.2162 48.6791L48.9062 55.1733C49.0697 55.5681 49.4515 55.8065 49.854 55.8065C49.9847 55.8065 50.1177 55.7814 50.2459 55.7282C50.7691 55.5115 51.0177 54.9116 50.8008 54.3885L47.7183 46.9466C48.1265 46.6554 48.5813 46.4243 49.0706 46.269C50.7611 45.7323 52.1807 44.5903 53.0682 43.0532C53.9542 41.5183 54.2339 39.7203 53.8559 37.9902C53.5166 36.4375 53.947 34.8189 55.0075 33.6606C56.2079 32.3492 56.8689 30.6475 56.8689 28.8687ZM24.8395 66.5486C24.4052 67.597 23.473 68.2994 22.3455 68.4278C21.2187 68.5564 20.1519 68.0814 19.493 67.1576C17.3278 64.1215 13.553 62.5576 9.87446 63.1734C8.75612 63.3607 7.66566 62.9426 6.95925 62.0545C6.25283 61.1665 6.09042 60.0106 6.52463 58.9622L10.7842 48.6788C10.9094 48.9211 11.0162 49.1747 11.1001 49.4388C11.6369 51.1294 12.779 52.5491 14.316 53.4365C15.8508 54.3226 17.6488 54.6025 19.379 54.2243C20.9314 53.8847 22.5501 54.3154 23.7084 55.3757C25.0197 56.5762 26.7215 57.2373 28.5003 57.2373C28.5665 57.2373 28.6324 57.2345 28.6984 57.2326L24.8395 66.5486ZM53.4947 32.2758C51.985 33.925 51.371 36.2249 51.8523 38.4279C52.1211 39.658 51.9222 40.9364 51.2921 42.0278C50.661 43.1209 49.6516 43.9328 48.4499 44.3144C46.309 44.9942 44.6251 46.678 43.9457 48.8185C43.5642 50.0205 42.7521 51.0299 41.659 51.6609C40.5677 52.291 39.2892 52.4899 38.0593 52.2211C35.8565 51.7397 33.5564 52.3536 31.9072 53.8635C30.975 54.7169 29.7649 55.1869 28.5 55.1869C27.2351 55.1869 26.0251 54.7169 25.0929 53.8635C23.8135 52.6924 22.1431 52.0603 20.4298 52.0603C19.9343 52.0603 19.435 52.1133 18.9408 52.2213C17.7105 52.4902 16.4322 52.2911 15.3409 51.661C14.2479 51.0299 13.4359 50.0205 13.0543 48.8187C12.3747 46.678 10.6909 44.9941 8.55022 44.3145C7.34834 43.933 6.33897 43.121 5.70788 42.028C5.07775 40.9367 4.87883 39.6582 5.14762 38.4282C5.62913 36.2253 5.01514 33.9253 3.50538 32.2761C2.65186 31.344 2.18196 30.1339 2.18196 28.869C2.18196 27.6041 2.65186 26.394 3.50538 25.4619C5.01514 23.8126 5.62913 21.5127 5.14762 19.3097C4.87883 18.0797 5.07775 16.8013 5.70788 15.7099C6.33897 14.6168 7.34834 13.8049 8.55022 13.4233C10.6909 12.7437 12.3747 11.0599 13.0543 8.91915C13.4359 7.71727 14.2479 6.70789 15.3409 6.07681C16.4323 5.44668 17.7108 5.24789 18.9407 5.51654C21.1433 5.99779 23.4436 5.38406 25.0928 3.8743C26.0249 3.02078 27.235 2.55089 28.4999 2.55089C29.7648 2.55089 30.9749 3.02092 31.907 3.8743C33.5562 5.3842 35.8564 5.9982 38.0591 5.51668C39.2886 5.24776 40.5676 5.44682 41.6589 6.07694C42.7518 6.70789 43.564 7.71741 43.9456 8.91915C44.6251 11.0599 46.3089 12.7437 48.4497 13.4234C49.6515 13.805 50.6609 14.6169 51.2919 15.71C51.9219 16.8014 52.1208 18.0798 51.8522 19.3099C51.3708 21.5129 51.9848 23.8128 53.4946 25.4619C54.348 26.3941 54.818 27.6041 54.818 28.869C54.818 30.1339 54.3481 31.3437 53.4947 32.2758Z" fill="white"/>
<path d="M28.5 9.6145C24.1602 9.6145 19.9013 11.1061 16.5079 13.8146C16.0653 14.1678 15.9928 14.813 16.3461 15.2557C16.6994 15.6983 17.3444 15.7707 17.7872 15.4174C20.8627 12.9627 24.5672 11.6653 28.5001 11.6653C37.9862 11.6653 45.7036 19.3828 45.7036 28.8687C45.7036 38.3547 37.9862 46.0722 28.5001 46.0722C19.014 46.0722 11.2964 38.3548 11.2964 28.8687C11.2964 24.9358 12.5938 21.2313 15.0485 18.1559C15.4018 17.7133 15.3294 17.068 14.8868 16.7147C14.4443 16.3613 13.799 16.4339 13.4457 16.8765C10.7372 20.2699 9.24561 24.5289 9.24561 28.8686C9.24561 39.4854 17.8831 48.1228 28.4998 48.1228C39.1165 48.1228 47.754 39.4853 47.754 28.8686C47.754 18.2518 39.1167 9.6145 28.5 9.6145Z" fill="white"/>
<path d="M34.7671 17.5089C33.7327 16.3668 31.9614 16.276 30.8187 17.307L25.0712 22.4935C24.4864 21.8896 23.6681 21.5131 22.763 21.5131H19.7525C17.9798 21.5131 16.5376 22.9553 16.5376 24.728V35.1277C16.5376 36.9004 17.9798 38.3426 19.7525 38.3426H22.763C23.5543 38.3426 24.2793 38.0547 24.84 37.5788C25.5994 38.0755 26.4867 38.3426 27.4155 38.3426H35.743C38.3457 38.3426 40.463 36.2253 40.463 33.6226V27.0415C40.463 24.4388 38.3457 22.3215 35.743 22.3215H34.0566L34.9613 21.016C35.7105 19.9352 35.6287 18.4605 34.7671 17.5089ZM22.7631 36.2919H19.7526C19.1107 36.2919 18.5885 35.7696 18.5885 35.1277V24.728C18.5885 24.0861 19.1107 23.5638 19.7526 23.5638H22.7631C23.405 23.5638 23.9273 24.0861 23.9273 24.728V35.1277C23.9271 35.7696 23.405 36.2919 22.7631 36.2919ZM35.7431 24.3721C37.215 24.3721 38.4124 25.5696 38.4124 27.0414V33.6225C38.4124 35.0944 37.2149 36.2917 35.7431 36.2917H27.4156C26.8667 36.2917 26.3439 36.1258 25.902 35.8199C25.9512 35.5968 25.9779 35.3654 25.9779 35.1277V24.728C25.9779 24.6341 25.973 24.5412 25.965 24.4492L32.1925 18.8296C32.4971 18.5549 32.9701 18.58 33.247 18.8857C33.4754 19.1379 33.4876 19.5425 33.276 19.8479L31.256 22.7628C31.0386 23.0763 31.0134 23.4845 31.1903 23.8225C31.3674 24.1605 31.7172 24.3722 32.0988 24.3722H35.7431V24.3721Z" fill="white"/>
</svg>
