<svg width="70" height="71" viewBox="0 0 70 71" fill="none" xmlns="http://www.w3.org/2000/svg">
<path fill-rule="evenodd" clip-rule="evenodd" d="M35.0002 11.395C39.7677 11.3951 44.4282 12.8088 48.3923 15.4576C52.3563 18.1063 55.4459 21.871 57.2704 26.2756C59.0948 30.6803 59.5721 35.527 58.642 40.203C57.7119 44.8789 55.4161 49.174 52.0449 52.5452C48.6737 55.9163 44.3786 58.2121 39.7027 59.1422C35.0267 60.0723 30.18 59.5949 25.7754 57.7704C21.3707 55.946 17.606 52.8564 14.9573 48.8923C12.3086 44.9282 10.8949 40.2677 10.8949 35.5002C10.895 29.1071 13.4347 22.9759 17.9553 18.4553C22.4759 13.9347 28.6071 11.3951 35.0002 11.395ZM7.66122 34.6724C7.51407 34.1227 7.22305 33.6222 6.81813 33.2224C6.41321 32.8226 5.90903 32.538 5.35753 32.3979C4.80603 32.2578 4.22715 32.2672 3.68051 32.4252C3.13387 32.5833 2.63923 32.8842 2.24756 33.2969C1.85589 33.7097 1.58134 34.2194 1.45219 34.7736C1.32303 35.3278 1.34395 35.9064 1.51279 36.4498C1.68162 36.9932 1.99227 37.4817 2.41272 37.8651C2.83318 38.2485 3.34825 38.5129 3.90488 38.6311C4.51249 44.6429 6.84844 50.35 10.6304 55.0626C14.4123 59.7752 19.4783 63.2915 25.2159 65.1863C25.3193 65.2247 25.4294 65.2418 25.5395 65.2367C25.6497 65.2315 25.7577 65.2042 25.8571 65.1564C25.9564 65.1085 26.0451 65.0411 26.1179 64.9582C26.1906 64.8753 26.2459 64.7786 26.2804 64.6738C26.3149 64.5691 26.3279 64.4585 26.3186 64.3486C26.3094 64.2387 26.2781 64.1318 26.2266 64.0342C26.1751 63.9367 26.1045 63.8506 26.0189 63.781C25.9334 63.7114 25.8347 63.6597 25.7287 63.6291C20.3052 61.8383 15.5147 58.5184 11.9337 54.069C8.3526 49.6195 6.13358 44.23 5.54359 38.549C6.32634 38.2977 6.98259 37.7552 7.37671 37.0337C7.77083 36.3122 7.87269 35.4668 7.66122 34.6724ZM6.07829 35.0952C6.15836 35.3937 6.14814 35.7091 6.04892 36.0017C5.94971 36.2943 5.76595 36.551 5.52089 36.7392C5.27584 36.9273 4.98048 37.0386 4.67217 37.059C4.36386 37.0793 4.05645 37.0078 3.7888 36.8534C3.52116 36.699 3.30529 36.4687 3.16851 36.1917C3.03173 35.9146 2.98017 35.6032 3.02036 35.2969C3.06054 34.9905 3.19066 34.703 3.39427 34.4706C3.59788 34.2382 3.86582 34.0714 4.16423 33.9912C4.36241 33.9375 4.56924 33.9235 4.77286 33.9499C4.97647 33.9764 5.17285 34.0428 5.35071 34.1454C5.52857 34.248 5.68441 34.3847 5.80927 34.5477C5.93413 34.7107 6.02556 34.8968 6.07829 35.0952ZM38.0918 4.24178C37.906 3.54703 37.4917 2.93509 36.9155 2.50467C36.3394 2.07424 35.6351 1.85041 34.9162 1.86927C34.1973 1.88813 33.5057 2.14858 32.9529 2.60862C32.4001 3.06867 32.0184 3.70148 31.8693 4.40502C25.8574 5.01257 20.1502 7.34849 15.4376 11.1304C10.725 14.9123 7.20866 19.9784 5.31376 25.7161C5.2756 25.8194 5.25866 25.9294 5.26394 26.0395C5.26922 26.1495 5.29662 26.2574 5.3445 26.3566C5.39239 26.4559 5.45977 26.5444 5.54263 26.6171C5.6255 26.6897 5.72214 26.7449 5.8268 26.7793C5.93146 26.8138 6.04199 26.8268 6.15178 26.8176C6.26158 26.8084 6.36841 26.7772 6.46587 26.7258C6.56334 26.6744 6.64946 26.6039 6.71909 26.5185C6.78871 26.4331 6.84042 26.3346 6.87113 26.2288C8.66195 20.8052 11.9818 16.0147 16.4313 12.4337C20.8808 8.85263 26.2704 6.63365 31.9514 6.04373C32.2062 6.83921 32.7618 7.50356 33.4997 7.89497C34.2376 8.28637 35.0993 8.37381 35.9008 8.13861C36.7023 7.90342 37.3801 7.36422 37.7895 6.63615C38.1989 5.90807 38.3074 5.0488 38.0919 4.24178H38.0918ZM36.5089 4.66465C36.5889 4.96307 36.5787 5.27854 36.4795 5.57115C36.3803 5.86377 36.1965 6.12039 35.9515 6.30857C35.7064 6.49676 35.4111 6.60805 35.1028 6.62838C34.7944 6.64872 34.487 6.57717 34.2194 6.42279C33.9517 6.26842 33.7359 6.03815 33.5991 5.7611C33.4623 5.48404 33.4108 5.17265 33.4509 4.8663C33.4911 4.55995 33.6213 4.27239 33.8249 4.03999C34.0285 3.80758 34.2964 3.64077 34.5948 3.56065C34.793 3.50693 34.9998 3.4929 35.2034 3.51936C35.4071 3.54582 35.6034 3.61226 35.7813 3.71485C35.9592 3.81743 36.115 3.95415 36.2399 4.11715C36.3647 4.28015 36.4561 4.46621 36.5089 4.66465ZM68.5224 34.6724C68.3685 34.1025 68.0605 33.5861 67.6323 33.1798C67.2041 32.7736 66.6722 32.4931 66.0951 32.3693C65.4875 26.3575 63.1516 20.6503 59.3697 15.9377C55.5877 11.2251 50.5217 7.7088 44.7841 5.81391C44.58 5.75469 44.3609 5.77698 44.1729 5.87608C43.9849 5.97518 43.8427 6.14337 43.7763 6.34521C43.7098 6.54706 43.7243 6.76682 43.8167 6.9582C43.909 7.14959 44.072 7.29768 44.2714 7.37127C49.6949 9.16207 54.4854 12.4819 58.0664 16.9314C61.6475 21.3809 63.8665 26.7704 64.4564 32.4514C63.8596 32.6421 63.3318 33.0037 62.9386 33.4916C62.5454 33.9794 62.304 34.5718 62.2444 35.1955C62.1848 35.8193 62.3095 36.4468 62.6031 37.0002C62.8967 37.5537 63.3464 38.0089 63.8962 38.3092C64.4461 38.6096 65.072 38.7419 65.6964 38.6899C66.3208 38.6379 66.9162 38.4037 67.4087 38.0165C67.9013 37.6293 68.2694 37.106 68.4673 36.5115C68.6653 35.9171 68.6845 35.2776 68.5224 34.6724ZM66.9396 35.0952C67.0197 35.3937 67.0094 35.7091 66.9102 36.0017C66.811 36.2943 66.6273 36.551 66.3822 36.7392C66.1371 36.9273 65.8418 37.0386 65.5335 37.059C65.2252 37.0793 64.9178 37.0078 64.6501 36.8534C64.3825 36.699 64.1666 36.4687 64.0298 36.1917C63.893 35.9146 63.8415 35.6032 63.8817 35.2969C63.9218 34.9905 64.052 34.703 64.2556 34.4706C64.4592 34.2382 64.7271 34.0714 65.0255 33.9912C65.2237 33.9375 65.4305 33.9235 65.6342 33.9499C65.8378 33.9764 66.0342 34.0428 66.212 34.1454C66.3899 34.248 66.5457 34.3847 66.6706 34.5477C66.7954 34.7107 66.8869 34.8968 66.9396 35.0952ZM38.049 64.9565C37.8125 64.2158 37.3145 63.5865 36.648 63.186C35.9815 62.7855 35.192 62.6413 34.4269 62.7802C33.6619 62.919 32.9735 63.3316 32.4903 63.9407C32.007 64.5499 31.762 65.3141 31.8009 66.0907C31.8398 66.8673 32.1599 67.6032 32.7015 68.1611C33.2432 68.719 33.9693 69.0607 34.7444 69.1225C35.5195 69.1842 36.2906 68.9618 36.9138 68.4968C37.537 68.0318 37.9697 67.3559 38.131 66.5952C44.1429 65.9876 49.85 63.6517 54.5625 59.8697C59.2751 56.0878 62.7913 51.0218 64.6862 45.2842C64.7246 45.1808 64.7418 45.0707 64.7367 44.9605C64.7316 44.8502 64.7043 44.7422 64.6565 44.6428C64.6086 44.5433 64.5412 44.4546 64.4583 44.3818C64.3754 44.3091 64.2786 44.2538 64.1738 44.2193C64.069 44.1847 63.9583 44.1717 63.8484 44.181C63.7384 44.1903 63.6315 44.2216 63.534 44.2732C63.4364 44.3247 63.3503 44.3954 63.2807 44.4811C63.2111 44.5667 63.1595 44.6655 63.129 44.7715C61.3382 50.195 58.0183 54.9855 53.5689 58.5665C49.1194 62.1476 43.73 64.3666 38.049 64.9565ZM36.509 65.5258C36.5891 65.8242 36.5789 66.1397 36.4796 66.4323C36.3804 66.7249 36.1967 66.9816 35.9516 67.1697C35.7066 67.3579 35.4112 67.4692 35.1029 67.4896C34.7946 67.5099 34.4872 67.4383 34.2195 67.284C33.9519 67.1296 33.736 66.8993 33.5992 66.6223C33.4625 66.3452 33.4109 66.0338 33.4511 65.7275C33.4913 65.4211 33.6214 65.1336 33.825 64.9012C34.0286 64.6688 34.2965 64.5019 34.595 64.4218C34.7931 64.3681 35 64.3541 35.2036 64.3805C35.4072 64.407 35.6036 64.4734 35.7814 64.576C35.9593 64.6786 36.1151 64.8153 36.24 64.9783C36.3649 65.1413 36.4563 65.3274 36.509 65.5258ZM57.4494 36.3205H47.4553C47.385 40.4326 46.7882 44.2864 45.7948 47.6232C48.0011 48.169 50.1382 48.9638 52.165 49.9924C55.4121 46.158 57.2735 41.342 57.4494 36.3205ZM45.8146 36.3205H24.1857C24.2559 40.318 24.8364 44.0465 25.8 47.2516C31.8711 46.012 38.1301 46.012 44.2012 47.2516C45.1643 44.0465 45.7448 40.318 45.8146 36.3205ZM22.544 36.3205H12.551C12.7269 41.342 14.5884 46.158 17.8354 49.9924C19.862 48.9636 21.9991 48.1686 24.2053 47.6226C23.2119 44.2859 22.6151 40.4319 22.5447 36.32L22.544 36.3205ZM12.551 34.6799H22.5451C22.6155 30.5678 23.2123 26.7138 24.2057 23.3772C21.9992 22.8314 19.8619 22.0366 17.835 21.008C14.5882 24.8425 12.7269 29.6585 12.551 34.6799ZM24.1857 34.6799H45.8146C45.7445 30.6824 45.164 26.9538 44.2004 23.7487C38.1293 24.9883 31.8703 24.9883 25.7992 23.7487C24.8358 26.9538 24.2553 30.6824 24.1857 34.6799ZM47.4553 34.6799H57.4494C57.2734 29.6584 55.4119 24.8425 52.165 21.008C50.1383 22.0368 48.0013 22.8318 45.7951 23.3779C46.7885 26.7145 47.3853 30.5685 47.4555 34.6806L47.4553 34.6799ZM40.3493 13.6765C42.583 15.7037 44.2029 18.7403 45.2895 21.8196C47.2676 21.3345 49.189 20.6421 51.0219 19.7539C48.0991 16.7745 44.403 14.6698 40.3493 13.6765ZM45.2895 49.1807C44.2029 52.2601 42.5825 55.2965 40.3493 57.3238C44.403 56.3304 48.0991 54.2257 51.0219 51.2464C49.189 50.3581 47.2676 49.6657 45.2895 49.1807ZM29.6508 57.3238C27.4169 55.2965 25.7974 52.2603 24.7106 49.1807C22.7325 49.6657 20.8111 50.3581 18.9783 51.2464C21.901 54.2257 25.5971 56.3305 29.6508 57.3238ZM24.7106 21.8196C25.7971 18.7403 27.4176 15.7036 29.6508 13.6765C25.597 14.6698 21.9009 16.7745 18.9781 19.754C20.811 20.6422 22.7325 21.3345 24.7106 21.8196ZM42.5019 19.4006C38.2612 10.9191 31.7389 10.919 27.4982 19.4006C27.0491 20.3051 26.6537 21.2353 26.3142 22.1864C31.8387 23.3218 38.1614 23.3218 43.6859 22.1864C43.3464 21.2353 42.951 20.3051 42.5019 19.4006ZM26.3142 48.8139C27.9015 53.2248 30.9107 57.9646 35 57.9646C39.0894 57.9646 42.0986 53.2248 43.6859 48.8139C38.1614 47.6786 31.8387 47.6786 26.3142 48.8139Z" fill="white"/>
</svg>
