<svg width="21" height="18" viewBox="0 0 21 18" fill="none" xmlns="http://www.w3.org/2000/svg">
<path d="M17.5 6C16.6667 6 15.9583 5.70833 15.375 5.125C14.7917 4.54167 14.5 3.83333 14.5 3C14.5 2.16667 14.7917 1.45833 15.375 0.875C15.9583 0.291667 16.6667 0 17.5 0C18.3333 0 19.0417 0.291667 19.625 0.875C20.2083 1.45833 20.5 2.16667 20.5 3C20.5 3.83333 20.2083 4.54167 19.625 5.125C19.0417 5.70833 18.3333 6 17.5 6ZM2.5 18C1.95 18 1.47917 17.8042 1.0875 17.4125C0.695833 17.0208 0.5 16.55 0.5 16V4C0.5 3.45 0.695833 2.97917 1.0875 2.5875C1.47917 2.19583 1.95 2 2.5 2H12.6C12.5333 2.33333 12.5 2.66667 12.5 3C12.5 3.33333 12.5333 3.66667 12.6 4C12.7167 4.53333 12.9083 5.02917 13.175 5.4875C13.4417 5.94583 13.7667 6.35 14.15 6.7L10.5 9L2.5 4V6L10.5 11L15.775 7.7C16.0583 7.8 16.3417 7.875 16.625 7.925C16.9083 7.975 17.2 8 17.5 8C18.0333 8 18.5583 7.91667 19.075 7.75C19.5917 7.58333 20.0667 7.33333 20.5 7V16C20.5 16.55 20.3042 17.0208 19.9125 17.4125C19.5208 17.8042 19.05 18 18.5 18H2.5Z" fill="#1D1B20"/>
</svg>
